HIERARCHY
ROOT Hips
{
	OFFSET -0.001795 -0.223333 0.028219
	CHANNELS 6 Xposition Yposition Zposition Zrotation Yrotation Xrotation 
	JOINT LeftUpLeg
	{
		OFFSET 0.069520 -0.091406 -0.006815
		CHANNELS 3 Zrotation Yrotation Xrotation
		JOINT LeftLeg
		{
			OFFSET 0.034277 -0.375199 -0.004496
			CHANNELS 3 Zrotation Yrotation Xrotation
			JOINT LeftFoot
			{
				OFFSET -0.013596 -0.397961 -0.043693
				CHANNELS 3 Zrotation Yrotation Xrotation
				JOINT LeftToe
				{
					OFFSET 0.026358 -0.055791 0.119288
					CHANNELS 3 Zrotation Yrotation Xrotation
					End Site
					{
						OFFSET 0.000000 0.000000 0.000000
					}
				}
			}
		}
	}
	JOINT RightUpLeg
	{
		OFFSET -0.067670 -0.090522 -0.004320
		CHANNELS 3 Zrotation Yrotation Xrotation
		JOINT RightLeg
		{
			OFFSET -0.038290 -0.382569 -0.008850
			CHANNELS 3 Zrotation Yrotation Xrotation
			JOINT RightFoot
			{
				OFFSET 0.015774 -0.398415 -0.042312
				CHANNELS 3 Zrotation Yrotation Xrotation
				JOINT RightToe
				{
					OFFSET -0.025372 -0.048144 0.123348
					CHANNELS 3 Zrotation Yrotation Xrotation
					End Site
					{
						OFFSET 0.000000 0.000000 0.000000
					}
				}
			}
		}
	}
	JOINT Spine
	{
		OFFSET -0.002533 0.108963 -0.026696
		CHANNELS 3 Zrotation Yrotation Xrotation
		JOINT Spine1
		{
			OFFSET 0.005487 0.135180 0.001092
			CHANNELS 3 Zrotation Yrotation Xrotation
			JOINT Spine2
			{
				OFFSET 0.001457 0.052922 0.025425
				CHANNELS 3 Zrotation Yrotation Xrotation
				JOINT Neck
				{
					OFFSET -0.002778 0.213870 -0.042857
					CHANNELS 3 Zrotation Yrotation Xrotation
					JOINT Head
					{
						OFFSET 0.005152 0.064970 0.051349
						CHANNELS 3 Zrotation Yrotation Xrotation
						End Site
						{
							OFFSET 0.000000 0.000000 0.000000
						}
					}
				}
				JOINT LeftShoulder
				{
					OFFSET 0.078845 0.121749 -0.034090
					CHANNELS 3 Zrotation Yrotation Xrotation
					JOINT LeftArm
					{
						OFFSET 0.090977 0.030469 -0.008868
						CHANNELS 3 Zrotation Yrotation Xrotation
						JOINT LeftForeArm
						{
							OFFSET 0.259612 -0.012772 -0.027456
							CHANNELS 3 Zrotation Yrotation Xrotation
							JOINT LeftHand
							{
								OFFSET 0.249234 0.008986 -0.001171
								CHANNELS 3 Zrotation Yrotation Xrotation
								End Site
								{
									OFFSET 0.000000 0.000000 0.000000
								}
							}
						}
					}
				}
				JOINT RightShoulder
				{
					OFFSET -0.081759 0.118833 -0.038615
					CHANNELS 3 Zrotation Yrotation Xrotation
					JOINT RightArm
					{
						OFFSET -0.096012 0.032551 -0.009143
						CHANNELS 3 Zrotation Yrotation Xrotation
						JOINT RightForeArm
						{
							OFFSET -0.253742 -0.013329 -0.021401
							CHANNELS 3 Zrotation Yrotation Xrotation
							JOINT RightHand
							{
								OFFSET -0.255298 0.007772 -0.005559
								CHANNELS 3 Zrotation Yrotation Xrotation
								End Site
								{
									OFFSET 0.000000 0.000000 0.000000
								}
							}
						}
					}
				}
			}
		}
	}
}
MOTION
Frames: 15
Frame Time: 0.050000
0.000000 0.945059 0.000000 0.121845 -0.591532 5.156505 -1.571686 0.297058 2.436853 0.303452 0.356989 -10.503091 -2.173807 -1.763677 5.652849 0.000000 0.000000 0.000000 0.721056 -0.019553 -0.081363 0.306155 -0.278285 -6.756455 3.135505 4.648042 5.183918 0.000000 0.000000 0.000000 4.487626 0.130590 -3.119071 -0.846128 0.369166 1.967369 -1.859917 1.538465 5.080375 3.540587 -0.236058 -21.625271 0.000000 0.000000 0.000000 -30.989004 -6.078885 0.265246 -25.832889 6.297186 -3.903624 9.735723 -14.312967 -0.674599 0.000000 0.000000 0.000000 25.164213 4.428831 0.846546 28.685814 -2.220555 -3.272298 -10.089022 20.284663 -0.894906 0.000000 0.000000 0.000000 
-0.000841 0.943565 0.002473 -0.033341 -1.023249 5.985281 -0.790142 0.245141 2.264553 -0.681381 0.419298 -11.888127 -2.500100 -1.787772 7.014424 0.000000 0.000000 0.000000 0.568130 0.132048 -1.496820 0.669210 -0.270311 -6.096934 3.046590 4.893553 4.400794 0.000000 0.000000 0.000000 5.233937 0.146231 -3.462712 -1.366077 0.621206 2.785403 -2.617792 1.876056 4.130911 4.201719 -0.272709 -24.060240 0.000000 0.000000 0.000000 -29.641608 -6.665699 0.583887 -27.026875 6.592464 -4.085191 11.773164 -12.507812 -0.807900 0.000000 0.000000 0.000000 25.306639 2.795472 -0.102465 29.127213 -2.726763 -3.396024 -11.124623 21.239200 -1.102451 0.000000 0.000000 0.000000 
-0.001705 0.942692 0.004978 -0.049715 -0.819465 6.339592 -0.259201 0.206142 2.115119 -0.719080 0.399064 -11.276240 -2.808314 -2.752113 6.170437 0.000000 0.000000 0.000000 0.509519 0.164404 -1.790699 1.049966 -0.289389 -6.105784 3.152327 5.485630 3.885172 0.000000 0.000000 0.000000 5.757755 0.156922 -3.667762 -1.706866 0.802640 0.348161 -2.631307 1.685101 6.690520 4.143019 -0.313793 -24.015479 0.000000 0.000000 0.000000 -28.267482 -6.945871 1.050839 -27.767103 7.424490 -4.519827 11.025093 -12.727706 -0.734510 0.000000 0.000000 0.000000 24.629901 3.963633 0.682639 29.546967 -3.589241 -3.738927 -11.587824 22.096765 -1.240733 0.000000 0.000000 0.000000 
-0.002932 0.942569 0.007572 0.033333 -0.872386 6.718885 -0.176857 0.245109 2.568003 -0.953194 0.436500 -12.516751 -3.501693 -3.565110 7.186834 0.000000 0.000000 0.000000 0.386138 0.192250 -2.034608 1.453713 -0.310446 -6.201157 3.661347 6.632624 3.982985 0.000000 0.000000 0.000000 5.591346 0.166709 -3.869098 -1.955679 0.917789 1.052300 -2.272092 1.516471 5.532979 4.171525 -0.252271 -24.801747 0.000000 0.000000 0.000000 -29.578673 -6.731312 0.883204 -26.444664 8.495579 -4.423662 11.736555 -11.780973 -0.744217 0.000000 0.000000 0.000000 24.650271 4.016316 0.583691 28.452945 -5.127891 -3.791439 -11.773738 22.874494 -1.346311 0.000000 0.000000 0.000000 
-0.004278 0.942887 0.010060 0.050811 -0.541226 6.789916 0.021221 0.272021 2.978117 -1.166333 0.439556 -12.839021 -3.759625 -3.985886 7.249452 0.000000 0.000000 0.000000 0.469495 0.180540 -1.933789 1.309278 -0.310591 -6.389090 3.825538 7.117277 3.876495 0.000000 0.000000 0.000000 5.602304 0.186841 -4.119811 -1.768409 0.823762 1.350046 -2.605340 1.242095 4.950055 4.391150 -0.473000 -23.705103 0.000000 0.000000 0.000000 -29.549993 -6.709697 0.849139 -25.822773 9.115906 -4.386242 11.350573 -11.665355 -0.699160 0.000000 0.000000 0.000000 24.529723 3.963269 0.525086 28.364321 -5.511630 -3.815368 -11.612824 22.930621 -1.324329 0.000000 0.000000 0.000000 
-0.005524 0.942818 0.012518 0.127667 -0.558204 6.803272 -0.213461 0.301173 3.146873 -0.830665 0.445242 -12.979244 -3.928149 -4.455019 6.952132 0.000000 0.000000 0.000000 0.220015 0.176970 -1.835812 1.537904 -0.315396 -6.176286 3.904360 7.619526 3.419602 0.000000 0.000000 0.000000 5.363259 0.185293 -4.125690 -1.915694 0.892706 1.859294 -2.302518 0.566217 4.750930 4.111662 -0.376283 -24.060486 0.000000 0.000000 0.000000 -29.622268 -6.406313 0.952208 -25.749220 9.054462 -4.414538 11.742568 -11.233795 -0.696240 0.000000 0.000000 0.000000 23.952242 4.531841 0.628758 28.645325 -5.562642 -3.789037 -11.730055 23.062797 -1.385923 0.000000 0.000000 0.000000 
-0.006683 0.942662 0.015117 0.264707 -0.744100 6.950097 -0.278064 0.294866 3.035073 -0.795946 0.438206 -12.635279 -3.739572 -4.214152 6.764233 0.000000 0.000000 0.000000 0.357884 0.156651 -1.681670 1.157218 -0.304793 -6.463539 4.180133 8.414500 3.226131 0.000000 0.000000 0.000000 5.268172 0.181762 -4.113664 -2.009454 0.939182 2.110714 -2.427440 0.577768 4.459311 4.235057 -0.448605 -23.963525 0.000000 0.000000 0.000000 -29.550828 -6.396441 0.957400 -25.579371 9.409566 -4.430567 11.422610 -11.011849 -0.651620 0.000000 0.000000 0.000000 23.752229 4.416470 0.540151 28.539396 -5.863464 -3.808540 -10.943511 23.031089 -1.243625 0.000000 0.000000 0.000000 
-0.007950 0.942290 0.018140 0.322718 -0.702399 7.114338 -0.209772 0.278319 2.900937 -0.631107 0.419859 -12.035021 -3.278899 -3.642864 6.166348 0.000000 0.000000 0.000000 0.644712 0.147611 -1.676782 0.885211 -0.287957 -6.305623 4.170022 8.837159 2.612788 0.000000 0.000000 0.000000 5.418410 0.192667 -4.266871 -2.114348 0.989493 2.465883 -2.647615 0.453168 4.382446 4.361398 -0.489422 -24.224139 0.000000 0.000000 0.000000 -29.583232 -6.467162 1.024518 -25.848029 9.496209 -4.498509 11.488449 -10.835347 -0.645204 0.000000 0.000000 0.000000 24.008868 4.596061 0.612977 28.664758 -6.041317 -3.851195 -10.108923 22.702709 -1.075351 0.000000 0.000000 0.000000 
-0.009642 0.942100 0.021823 0.370525 -0.685181 7.145988 -0.106496 0.283585 3.019581 -0.781322 0.407340 -11.598998 -3.091168 -3.429943 5.875007 0.000000 0.000000 0.000000 0.990815 0.088963 -1.231324 0.781098 -0.286609 -6.411216 4.227574 9.183228 2.336364 0.000000 0.000000 0.000000 5.451829 0.192048 -4.265563 -2.102037 0.982441 2.860061 -2.881767 0.415121 4.242986 4.739666 -0.671958 -24.242471 0.000000 0.000000 0.000000 -29.709325 -6.632506 1.111017 -26.140231 9.796024 -4.598724 11.683692 -10.736462 -0.656866 0.000000 0.000000 0.000000 24.305327 4.901257 0.788484 28.957788 -6.562121 -3.990115 -8.959485 22.648127 -0.867170 0.000000 0.000000 0.000000 
-0.012037 0.941731 0.026231 0.359309 -0.569750 6.940557 0.115226 0.299513 3.335424 -0.810048 0.395478 -11.222968 -2.723525 -3.160049 4.980640 0.000000 0.000000 0.000000 1.327241 -0.025885 -0.293176 0.695015 -0.291155 -6.656796 4.257088 9.716009 1.728953 0.000000 0.000000 0.000000 5.534067 0.178437 -4.070794 -2.085649 0.972565 3.199109 -3.281725 0.868737 4.105298 5.102832 -0.746444 -24.534394 0.000000 0.000000 0.000000 -29.833515 -6.970326 1.061216 -26.337282 10.093804 -4.633407 11.818604 -11.026506 -0.699037 0.000000 0.000000 0.000000 24.954933 4.514802 0.735232 29.151018 -7.004218 -4.152274 -7.481973 22.790034 -0.588428 0.000000 0.000000 0.000000 
-0.014988 0.941073 0.031376 0.340862 -0.227760 6.739056 0.391718 0.310914 3.660928 -0.897367 0.378889 -10.705221 -2.654340 -3.231777 4.527421 0.000000 0.000000 0.000000 1.615297 -0.095826 0.234740 0.748095 -0.297164 -6.724977 3.987332 9.306447 1.379847 0.000000 0.000000 0.000000 5.754667 0.188451 -4.143187 -2.178912 1.014272 3.636151 -3.554768 0.823833 4.108385 5.092997 -0.703426 -24.675978 0.000000 0.000000 0.000000 -30.195452 -7.237344 1.140693 -26.847837 10.204386 -4.740463 12.276808 -11.548067 -0.782562 0.000000 0.000000 0.000000 25.578134 4.546052 0.798372 29.990338 -7.716983 -4.449639 -6.145644 23.252533 -0.352136 0.000000 0.000000 0.000000 
-0.018453 0.940407 0.037115 0.382251 0.217399 6.530129 0.744332 0.296392 3.768050 -0.840293 0.347365 -9.710042 -2.096029 -2.728975 3.290149 0.000000 0.000000 0.000000 2.019317 -0.189188 0.896146 0.421594 -0.276908 -6.509808 3.782226 9.324356 0.674312 0.000000 0.000000 0.000000 5.766253 0.180196 -4.029242 -1.987112 0.908523 3.832141 -3.981825 1.140737 4.042070 5.532004 -0.845834 -24.680105 0.000000 0.000000 0.000000 -30.726705 -7.876327 1.257111 -27.539410 10.645318 -4.900821 12.585756 -12.684690 -0.910836 0.000000 0.000000 0.000000 26.607548 3.887824 0.581066 30.595932 -8.229750 -4.714196 -5.166553 24.347449 -0.161676 0.000000 0.000000 0.000000 
-0.022386 0.939663 0.043299 0.379912 0.439569 6.306161 0.947841 0.300833 3.985087 -0.471957 0.320228 -9.111022 -1.903786 -2.530024 2.900313 0.000000 0.000000 0.000000 2.173091 -0.252820 1.380488 0.576829 -0.269723 -6.071096 3.418645 8.983600 -0.128450 0.000000 0.000000 0.000000 5.985791 0.177702 -3.957549 -1.969129 0.891733 4.362874 -4.354045 1.137719 3.683680 5.789058 -0.974954 -24.435192 0.000000 0.000000 0.000000 -31.493679 -8.357631 1.440237 -28.447549 10.918994 -5.102257 12.608874 -13.680997 -0.993764 0.000000 0.000000 0.000000 27.232954 4.280923 0.876425 32.414215 -9.024850 -5.206658 -4.331126 25.796427 0.005499 0.000000 0.000000 0.000000 
-0.026843 0.939080 0.049783 0.436732 0.311843 5.828622 1.130252 0.272290 3.752283 -0.215864 0.237806 -6.715885 -0.740877 -1.124292 0.926481 0.000000 0.000000 0.000000 2.502872 -0.389756 2.376348 0.183159 -0.242228 -5.883486 3.441360 9.529958 -0.762520 0.000000 0.000000 0.000000 6.090363 0.145987 -3.492274 -2.201190 1.015394 4.494830 -4.298614 0.959407 3.655148 5.736579 -1.009160 -24.183331 0.000000 0.000000 0.000000 -32.070188 -8.070214 1.323218 -30.276011 10.969393 -5.513699 13.127403 -14.772555 -1.138916 0.000000 0.000000 0.000000 28.093087 4.454863 0.861250 33.889833 -9.513619 -5.570426 -4.075382 27.066816 0.052890 0.000000 0.000000 0.000000 
-0.031842 0.938070 0.056564 0.475954 0.156065 5.517168 1.496688 0.249711 3.722885 -0.058326 0.169562 -4.884807 -0.068413 -0.216146 -0.147267 0.000000 0.000000 0.000000 2.431929 -0.466356 3.051511 0.355442 -0.256549 -6.041607 3.256429 9.367106 -1.191865 0.000000 0.000000 0.000000 6.179340 0.112761 -3.062745 -2.214990 1.025923 4.694025 -4.629843 1.166597 3.344879 5.857016 -1.067255 -23.948526 0.000000 0.000000 0.000000 -32.608701 -8.227930 1.284130 -31.594261 11.696880 -5.910548 12.539304 -15.830260 -1.151085 0.000000 0.000000 0.000000 29.026432 4.650854 1.046044 35.733937 -9.392429 -5.893373 -3.279764 28.161412 0.250452 0.000000 0.000000 0.000000 
